<svg version="1.1" xmlns="http://www.w3.org/2000/svg" xmlns:xlink="http://www.w3.org/1999/xlink" width="29.71795" height="29.09296" viewBox="0,0,29.71795,29.09296"><defs><linearGradient x1="229.61406" y1="180.52438" x2="246.59625" y2="180.52438" gradientUnits="userSpaceOnUse" id="color-1"><stop offset="0" stop-color="#d93838"/><stop offset="1" stop-color="#d93838"/></linearGradient><linearGradient x1="235.20558" y1="177.66153" x2="236.885" y2="175.76848" gradientUnits="userSpaceOnUse" id="color-2"><stop offset="0" stop-color="#000000" stop-opacity="0"/><stop offset="1" stop-color="#000000" stop-opacity="0.58039"/></linearGradient><linearGradient x1="231.69898" y1="174.59061" x2="250.37981" y2="174.59061" gradientUnits="userSpaceOnUse" id="color-3"><stop offset="0" stop-color="#f03627"/><stop offset="1" stop-color="#f20052"/></linearGradient><linearGradient x1="245.01287" y1="178.5066" x2="245.09482" y2="179.72586" gradientUnits="userSpaceOnUse" id="color-4"><stop offset="0" stop-color="#000000" stop-opacity="0"/><stop offset="1" stop-color="#000000" stop-opacity="0.58039"/></linearGradient><linearGradient x1="245.73886" y1="185.28457" x2="250.553" y2="178.9599" gradientUnits="userSpaceOnUse" id="color-5"><stop offset="0" stop-color="#f22c2c"/><stop offset="1" stop-color="#f20f47"/></linearGradient></defs><g transform="translate(-225.14103,-165.45352)"><g data-paper-data="{&quot;isPaintingLayer&quot;:true}" stroke="none" stroke-linejoin="miter" stroke-miterlimit="10" stroke-dasharray="" stroke-dashoffset="0" style="mix-blend-mode: normal"><path d="M225.14104,169.50007c0,-2.23485 1.85062,-4.04655 4.13348,-4.04655h21.45101c1.09626,0 2.14763,0.42634 2.92281,1.18521c0.77516,0.75887 1.21065,1.78812 1.21065,2.86133v20.99987c0,2.23485 -1.85061,4.04655 -4.13346,4.04655h-21.45101c-2.28286,0 -4.13348,-1.8117 -4.13348,-4.04655z" fill-opacity="0.00784" fill="#3d3d3d" fill-rule="evenodd" stroke-width="1" stroke-linecap="square"/><g><path d="M246.59625,188.05138v0c-3.10068,2.53565 -7.38206,3.06507 -11.007,1.36109c-3.62494,-1.70398 -5.94901,-5.33841 -5.97497,-9.34379c-0.02595,-4.00538 2.25084,-7.66962 5.8534,-9.42042l2.27272,4.67653c-1.80128,0.87539 -2.93967,2.70753 -2.9267,4.71021c0.01298,2.00269 1.17501,3.81991 2.98749,4.6719c1.81247,0.85198 3.95316,0.58728 5.50351,-0.68055z" fill="url(#color-1)" fill-rule="evenodd" stroke-width="1" stroke-linecap="square"/><path d="M233.03146,172.34994v0c0.00002,-0.00002 0.00005,-0.00002 0.00007,0l3.85252,3.41774c0.00001,0.00001 0.00002,0.00002 0.00002,0.00003c0,0.00001 0,0.00002 -0.00001,0.00003l-1.6784,1.89371c-0.00002,0.00002 -0.00004,0.00002 -0.00006,0l-3.85252,-3.41774v0c-0.00002,-0.00002 -0.00002,-0.00005 0,-0.00006z" fill="url(#color-2)" fill-rule="evenodd" stroke-width="1" stroke-linecap="square"/><path d="M231.69898,173.75191v0c2.59532,-3.45303 7.05479,-4.94251 11.2043,-3.74227c4.14952,1.20024 7.12529,4.84031 7.47653,9.14562l-5.2274,0.42648c-0.17413,-2.13431 -1.64933,-3.93885 -3.70642,-4.53385c-2.05709,-0.595 -4.26783,0.14339 -5.55442,1.85519z" fill="url(#color-3)" fill-rule="evenodd" stroke-width="1" stroke-linecap="square"/><path d="M250.35356,179.37226v0c0,0.00003 -0.00002,0.00005 -0.00005,0.00005l-5.25863,0.35352c-0.00002,0 -0.00002,0 -0.00003,-0.00001c-0.00001,-0.00001 -0.00002,-0.00002 -0.00002,-0.00003l-0.08124,-1.21913c0,-0.00002 0.00002,-0.00004 0.00004,-0.00005l5.25864,-0.35351v0c0.00002,0 0.00005,0.00002 0.00005,0.00004z" fill="url(#color-4)" fill-rule="evenodd" stroke-width="1" stroke-linecap="square"/><path d="M247.67723,182.73597l-5.72379,-0.70533c0,0 -1.8819,-1.50978 1.19338,-2.12746c0.30873,-0.06201 7.20047,-1.14901 7.20047,-1.14901c0,0 0.0762,0.30745 0.01459,0.64438c-0.15069,0.82416 -2.68465,3.33743 -2.68465,3.33743z" fill="url(#color-5)" fill-rule="evenodd" stroke-width="1" stroke-linecap="square"/><path d="M238.38741,180.18993c0,-1.32543 1.07447,-2.3999 2.3999,-2.3999c1.32543,0 2.3999,1.07447 2.3999,2.3999c0,1.32543 -1.07447,2.3999 -2.3999,2.3999c-1.32543,0 -2.3999,-1.07447 -2.3999,-2.3999z" fill="#f22532" fill-rule="nonzero" stroke-width="0" stroke-linecap="butt"/></g></g></g></svg>