<svg version="1.1" xmlns="http://www.w3.org/2000/svg" xmlns:xlink="http://www.w3.org/1999/xlink" width="29.71795" height="29.09296" viewBox="0,0,29.71795,29.09296"><defs><linearGradient x1="241.82627" y1="173.15106" x2="241.82627" y2="176.01177" gradientUnits="userSpaceOnUse" id="color-1"><stop offset="0" stop-color="#dc9609"/><stop offset="1" stop-color="#cd8a04"/></linearGradient><linearGradient x1="241.82627" y1="173.15106" x2="241.82627" y2="176.01177" gradientUnits="userSpaceOnUse" id="color-2"><stop offset="0" stop-color="#dc9609"/><stop offset="1" stop-color="#cd8a04"/></linearGradient><linearGradient x1="240.00005" y1="174.32207" x2="240.00005" y2="188.2227" gradientUnits="userSpaceOnUse" id="color-3"><stop offset="0" stop-color="#ffda6a"/><stop offset="1" stop-color="#f3c637"/></linearGradient><linearGradient x1="234.71968" y1="185.39932" x2="245.5209" y2="185.39932" gradientUnits="userSpaceOnUse" id="color-4"><stop offset="0" stop-color="#4597d8"/><stop offset="1" stop-color="#2f74b9"/></linearGradient><linearGradient x1="234.71968" y1="185.39932" x2="245.5209" y2="185.39932" gradientUnits="userSpaceOnUse" id="color-5"><stop offset="0" stop-color="#4597d8"/><stop offset="1" stop-color="#2f74b9"/></linearGradient><linearGradient x1="234.57918" y1="171.7773" x2="234.57918" y2="174.63801" gradientUnits="userSpaceOnUse" id="color-6"><stop offset="0" stop-color="#e29b0b"/><stop offset="1" stop-color="#cb8803"/></linearGradient><linearGradient x1="234.57918" y1="171.7773" x2="234.57918" y2="174.63801" gradientUnits="userSpaceOnUse" id="color-7"><stop offset="0" stop-color="#e29b0b"/><stop offset="1" stop-color="#cb8803"/></linearGradient></defs><g transform="translate(-225.14105,-165.45352)"><g data-paper-data="{&quot;isPaintingLayer&quot;:true}" stroke-miterlimit="10" stroke-dasharray="" stroke-dashoffset="0" style="mix-blend-mode: normal"><path d="M225.14106,169.50007c0,-2.23485 1.85062,-4.04655 4.13348,-4.04655h21.45101c1.09626,0 2.14763,0.42634 2.92281,1.18521c0.77516,0.75887 1.21065,1.78812 1.21065,2.86133v20.99987c0,2.23485 -1.85061,4.04655 -4.13346,4.04655h-21.45101c-2.28286,0 -4.13348,-1.8117 -4.13348,-4.04655z" fill-opacity="0.00784" fill="#3d3d3d" fill-rule="evenodd" stroke="none" stroke-width="1" stroke-linecap="square" stroke-linejoin="miter"/><path d="M234.00659,173.15106c0,0 1.24014,0 1.56975,0c1.73079,0 5.44352,0 8.62058,0c2.95644,0 5.44902,0 5.44902,0v2.86071c0,0 -9.95454,0 -12.70399,0c-1.32161,0 -2.93535,0 -2.93535,0z" fill="url(#color-1)" fill-rule="nonzero" stroke="url(#color-2)" stroke-width="1.75" stroke-linecap="round" stroke-linejoin="round"/><path d="M229.41106,174.32207h21.17798c0,0 0,10.92964 0,12.68062c0,0.6046 -0.38846,1.22001 -1.05814,1.22001c-3.85375,0 -17.02032,0 -19.06297,0c-0.51833,0 -1.05688,-0.5808 -1.05688,-1.15957z" fill="url(#color-3)" fill-rule="nonzero" stroke="none" stroke-width="0" stroke-linecap="butt" stroke-linejoin="miter"/><path d="M234.71968,183.64115c0,0 0.8565,0 1.08413,0c2.30771,0 9.71708,0 9.71708,0v3.51634c0,0 -6.87504,0 -8.77394,0c-0.91276,0 -2.02728,0 -2.02728,0z" fill="url(#color-4)" fill-rule="nonzero" stroke="url(#color-5)" stroke-width="2" stroke-linecap="round" stroke-linejoin="round"/><path d="M230.32707,171.7773c0,0 0.67435,0 0.85358,0c1.81695,0 7.65063,0 7.65063,0v2.86071c0,0 -5.41298,0 -6.90806,0c-0.71866,0 -1.59615,0 -1.59615,0z" fill="url(#color-6)" fill-rule="nonzero" stroke="url(#color-7)" stroke-width="1.75" stroke-linecap="round" stroke-linejoin="round"/><path d="M236.56327,186.65921h7.44925" fill="none" fill-rule="nonzero" stroke="#285492" stroke-width="1" stroke-linecap="round" stroke-linejoin="miter"/></g></g></svg>