<svg version="1.1" xmlns="http://www.w3.org/2000/svg" xmlns:xlink="http://www.w3.org/1999/xlink" width="29.71795" height="29.09296" viewBox="0,0,29.71795,29.09296"><g transform="translate(-225.14103,-165.45352)"><g data-paper-data="{&quot;isPaintingLayer&quot;:true}" fill-rule="evenodd" stroke="none" stroke-width="1" stroke-linejoin="miter" stroke-miterlimit="10" stroke-dasharray="" stroke-dashoffset="0" style="mix-blend-mode: normal"><path d="M225.14103,169.50007c0,-2.23485 1.85062,-4.04655 4.13348,-4.04655h21.45101c1.09626,0 2.14763,0.42634 2.92281,1.18521c0.77516,0.75887 1.21065,1.78812 1.21065,2.86133v20.99987c0,2.23485 -1.85061,4.04655 -4.13346,4.04655h-21.45101c-2.28286,0 -4.13348,-1.8117 -4.13348,-4.04655z" fill-opacity="0.00784" fill="#3d3d3d" stroke-linecap="square"/><path d="M238.94344,170.35889c0.7044,0 1.40872,0 2.11312,0c3.3868,0.49287 5.95114,2.20978 7.69308,5.15073c0.57946,1.11092 0.96464,2.27755 1.15561,3.49986c0,0.83647 0,1.67286 0,2.50933c-0.69271,3.90617 -2.87186,6.6136 -6.53747,8.1223c-0.08802,0 -0.17612,0 -0.26414,0c-0.18173,-0.17063 -0.32483,-0.36874 -0.42923,-0.59431c-0.03183,-0.63869 -0.02087,-1.27698 0.03302,-1.91502c-0.00825,-0.71278 -0.08525,-1.41718 -0.23112,-2.11312c-0.14838,-0.3795 -0.40156,-0.66563 -0.7594,-0.85846c0.90118,-0.12084 1.78162,-0.32991 2.6414,-0.62733c1.44782,-0.74732 2.18523,-1.94691 2.21217,-3.59891c0.24393,-1.56873 -0.16324,-2.93341 -1.22165,-4.09417c0.12421,-0.58786 0.15723,-1.18217 0.09905,-1.78294c-0.03526,-0.28186 -0.12329,-0.546 -0.26414,-0.79242c-0.07013,-0.03941 -0.14712,-0.06143 -0.23112,-0.06603c-0.95044,0.18834 -1.81993,0.56254 -2.60838,1.12259c-0.788,-0.1988 -1.59144,-0.28684 -2.41028,-0.26414c-0.88784,-0.02732 -1.75732,0.08274 -2.60838,0.33017c-0.64252,-0.4368 -1.33589,-0.77798 -2.0801,-1.02354c-0.28409,-0.10137 -0.57024,-0.11237 -0.85846,-0.03302c-0.37252,0.88594 -0.41654,1.78841 -0.13207,2.70743c-0.99739,1.16552 -1.33858,2.50827 -1.02354,4.02814c0.26164,1.93456 1.32921,3.17826 3.2027,3.73098c0.58916,0.14858 1.18348,0.26969 1.78295,0.36319c-0.44428,0.3348 -0.73041,0.77505 -0.85845,1.3207c-0.75543,0.36253 -1.50383,0.3515 -2.24519,-0.03302c-0.42481,-0.49678 -0.86505,-0.98102 -1.3207,-1.45277c-0.36052,-0.24829 -0.73472,-0.28131 -1.12259,-0.09905c0.28565,0.27451 0.5828,0.53865 0.89147,0.79242c0.30379,0.49764 0.58995,1.00393 0.85846,1.5188c0.30737,0.35745 0.69258,0.58857 1.15561,0.69337c0.56649,0.05388 1.12779,0.04286 1.68389,-0.03302c0.0836,0.70281 0.10559,1.40721 0.06603,2.11312c-0.0801,0.28851 -0.24519,0.50867 -0.49526,0.66035c-0.06603,0 -0.13207,0 -0.1981,0c-3.6977,-1.51841 -5.87685,-4.24783 -6.53746,-8.18834c0,-0.79242 0,-1.58484 0,-2.37726c0.71641,-4.19146 3.09367,-6.97594 7.13178,-8.35343c0.57695,-0.1439 1.14921,-0.26496 1.71691,-0.36319z" data-paper-data="{&quot;index&quot;:null}" fill="#000000" stroke-linecap="butt" opacity="0.969"/></g></g></svg>