<svg version="1.1" xmlns="http://www.w3.org/2000/svg" xmlns:xlink="http://www.w3.org/1999/xlink" width="29.71795" height="29.09296" viewBox="0,0,29.71795,29.09296"><defs><linearGradient x1="237.12026" y1="180.00003" x2="242.87973" y2="180.00003" gradientUnits="userSpaceOnUse" id="color-1"><stop offset="0" stop-color="#0077d7"/><stop offset="1" stop-color="#005ec9"/></linearGradient></defs><g transform="translate(-225.14105,-165.45352)"><g data-paper-data="{&quot;isPaintingLayer&quot;:true}" stroke-linejoin="miter" stroke-miterlimit="10" stroke-dasharray="" stroke-dashoffset="0" style="mix-blend-mode: normal"><path d="M225.14106,169.50007c0,-2.23485 1.85062,-4.04655 4.13348,-4.04655h21.45101c1.09626,0 2.14763,0.42634 2.92281,1.18521c0.77516,0.75887 1.21065,1.78812 1.21065,2.86133v20.99987c0,2.23485 -1.85061,4.04655 -4.13346,4.04655h-21.45101c-2.28286,0 -4.13348,-1.8117 -4.13348,-4.04655z" fill-opacity="0.00784" fill="#3d3d3d" fill-rule="evenodd" stroke="none" stroke-width="1" stroke-linecap="square"/><path d="M242.45837,184.46942c0,0 0,3.05398 0,4.25845c0,0.4498 -0.26358,0.92667 -0.65849,0.92667c-0.98442,0 -2.78483,0 -3.35227,0c-0.33649,0 -0.71835,-0.39265 -0.71835,-0.86681c0,-1.22501 0,-4.31831 0,-4.31831z" data-paper-data="{&quot;index&quot;:null}" fill="#0039ff" fill-rule="nonzero" stroke="#292929" stroke-width="0" stroke-linecap="butt"/><path d="M245.03813,181.55921c0,0 2.15949,2.1595 3.01118,3.01118c0.31805,0.31805 0.46887,0.84163 0.18964,1.12086c-0.69608,0.69608 -1.96917,1.96917 -2.37042,2.37042c-0.23793,0.23793 -0.78558,0.23029 -1.12087,-0.10498c-0.86621,-0.86621 -3.05349,-3.05349 -3.05349,-3.05349z" data-paper-data="{&quot;index&quot;:null}" fill="#0039ff" fill-rule="nonzero" stroke="#292929" stroke-width="0" stroke-linecap="butt"/><path d="M238.52016,184.90316c0,0 -2.18729,2.18729 -3.05349,3.05349c-0.33528,0.33528 -0.88293,0.34292 -1.12087,0.10498c-0.40125,-0.40125 -1.67434,-1.67435 -2.37042,-2.37042c-0.27925,-0.27925 -0.12844,-0.80281 0.18964,-1.12087c0.8517,-0.8517 3.01118,-3.01118 3.01118,-3.01118z" data-paper-data="{&quot;index&quot;:null}" fill="#0039ff" fill-rule="nonzero" stroke="#292929" stroke-width="0" stroke-linecap="butt"/><path d="M244.41565,177.85981c0,0 3.05398,0 4.25845,0c0.4498,0 0.92667,0.26359 0.92667,0.65849c0,0.98442 0,2.78483 0,3.35227c0,0.33649 -0.39265,0.71834 -0.86682,0.71834c-1.22501,0 -4.31831,0 -4.31831,0z" data-paper-data="{&quot;index&quot;:null}" fill="#006cff" fill-rule="nonzero" stroke="#292929" stroke-width="0" stroke-linecap="butt"/><path d="M235.20451,180.00004c0,-2.69567 2.18528,-4.88097 4.88097,-4.88097c2.69567,0 4.88096,2.18528 4.88096,4.88097c0,2.69567 -2.18528,4.88097 -4.88096,4.88097c-2.69567,0 -4.88097,-2.18528 -4.88097,-4.88097z" fill="none" fill-rule="nonzero" stroke="#006cff" stroke-width="1" stroke-linecap="butt"/><path d="M237.74258,175.53059c0,0 0,-3.09331 0,-4.31831c0,-0.47416 0.38186,-0.86681 0.71834,-0.86681c0.56746,0 2.36788,0 3.35227,0c0.39489,0 0.65848,0.47688 0.65848,0.92667c0,1.20449 0,4.25846 0,4.25846z" fill="#006cff" fill-rule="nonzero" stroke="#292929" stroke-width="0" stroke-linecap="butt"/><path d="M241.70746,175.09685c0,0 2.18729,-2.18729 3.05349,-3.05349c0.33528,-0.33528 0.88293,-0.34291 1.12086,-0.10497c0.40125,0.40125 1.67434,1.67434 2.37042,2.37042c0.27925,0.27925 0.12844,0.80281 -0.18965,1.12087c-0.8517,0.8517 -3.01118,3.01118 -3.01118,3.01118z" fill="#006cff" fill-rule="nonzero" stroke="#292929" stroke-width="0" stroke-linecap="butt"/><path d="M235.18955,178.44089c0,0 -2.15949,-2.15949 -3.01118,-3.01118c-0.31805,-0.31805 -0.46887,-0.84163 -0.18964,-1.12087c0.69608,-0.69608 1.96917,-1.96917 2.37042,-2.37042c0.23793,-0.23793 0.78558,-0.23029 1.12086,0.10498c0.86621,0.86621 3.05349,3.05349 3.05349,3.05349z" data-paper-data="{&quot;index&quot;:null}" fill="#006cff" fill-rule="nonzero" stroke="#292929" stroke-width="0" stroke-linecap="butt"/><path d="M235.58436,182.41796c0,0 -3.0933,0 -4.31831,0c-0.47416,0 -0.86682,-0.38186 -0.86682,-0.71834c0,-0.56746 0,-2.36787 0,-3.35227c0,-0.39489 0.47688,-0.65849 0.92667,-0.65849c1.20449,0 4.25845,0 4.25845,0z" data-paper-data="{&quot;index&quot;:null}" fill="#006cff" fill-rule="nonzero" stroke="#292929" stroke-width="0" stroke-linecap="butt"/><path d="M237.12026,180.00003c0,-1.59044 1.2893,-2.87972 2.87972,-2.87972c1.59044,0 2.87972,1.28929 2.87972,2.87972c0,1.59044 -1.28929,2.87972 -2.87972,2.87972c-1.59044,0 -2.87972,-1.2893 -2.87972,-2.87972z" fill="url(#color-1)" fill-rule="nonzero" stroke="none" stroke-width="0" stroke-linecap="butt"/></g></g></svg>